<svg width="35" height="54" viewBox="0 0 35 54" fill="none" xmlns="http://www.w3.org/2000/svg">
<path d="M11.6 17.8535L1.93333 27.7721L5.8 31.7396L15.4667 21.821V19.8372L17.4 17.8535L19.3333 19.8372V21.821L29 31.7396L32.8667 27.7721L23.2 17.8535H21.2667L19.3333 15.8698L21.2667 13.8861H23.2L32.8667 3.96745L29 0L19.3333 9.91862V11.9023L17.4 13.8861L15.4667 11.9023V9.91862L5.8 0L1.93333 3.96745L11.6 13.8861H13.5333L15.4667 15.8698L13.5333 17.8535H11.6ZM32.8667 49.5931H29L25.1333 33.7233L17.4 25.7884L9.66667 33.7233L5.8 49.5931H1.93333C0.865747 49.5931 0 50.481 0 51.5768C0 52.6722 0.865747 53.5605 1.93333 53.5605H32.8667C33.9343 53.5605 34.8 52.6722 34.8 51.5768C34.8 50.481 33.9343 49.5931 32.8667 49.5931ZM19.3333 49.5931H15.4667V43.6324C15.4667 42.5421 16.3282 41.6582 17.3907 41.6582C18.4637 41.6582 19.3333 42.5505 19.3333 43.6515V49.5931Z" fill="white"/>
</svg>
